<svg width="19" height="18" viewBox="0 0 19 18" fill="none" xmlns="http://www.w3.org/2000/svg">
<path d="M15.0273 3.66747L10.6323 1.70997C9.98727 1.42497 9.01227 1.42497 8.36727 1.70997L3.97227 3.66747C2.86227 4.16247 2.69727 4.83747 2.69727 5.19747C2.69727 5.55747 2.86227 6.23247 3.97227 6.72747L8.36727 8.68497C8.68977 8.82747 9.09477 8.90247 9.49977 8.90247C9.90477 8.90247 10.3098 8.82747 10.6323 8.68497L15.0273 6.72747C16.1373 6.23247 16.3023 5.55747 16.3023 5.19747C16.3023 4.83747 16.1448 4.16247 15.0273 3.66747Z" fill="#D7531B"/>
<path d="M9.50023 12.78C9.21523 12.78 8.93023 12.72 8.66774 12.6075L3.61273 10.3575C2.84023 10.0125 2.24023 9.09 2.24023 8.2425C2.24023 7.935 2.48773 7.6875 2.79523 7.6875C3.10273 7.6875 3.35023 7.935 3.35023 8.2425C3.35023 8.6475 3.68773 9.1725 4.06273 9.3375L9.11773 11.5875C9.35773 11.6925 9.63523 11.6925 9.87523 11.5875L14.9302 9.3375C15.3052 9.1725 15.6427 8.655 15.6427 8.2425C15.6427 7.935 15.8902 7.6875 16.1977 7.6875C16.5052 7.6875 16.7527 7.935 16.7527 8.2425C16.7527 9.0825 16.1527 10.0125 15.3802 10.3575L10.3252 12.6075C10.0702 12.72 9.78523 12.78 9.50023 12.78Z" fill="#D7531B"/>
<path d="M9.50023 16.5C9.21523 16.5 8.93023 16.44 8.66774 16.3275L3.61273 14.0775C2.78023 13.71 2.24023 12.8775 2.24023 11.9625C2.24023 11.655 2.48773 11.4075 2.79523 11.4075C3.10273 11.4075 3.35023 11.655 3.35023 11.9625C3.35023 12.435 3.62773 12.8625 4.06273 13.0575L9.11773 15.3075C9.35773 15.4125 9.63523 15.4125 9.87523 15.3075L14.9302 13.0575C15.3577 12.87 15.6427 12.435 15.6427 11.9625C15.6427 11.655 15.8902 11.4075 16.1977 11.4075C16.5052 11.4075 16.7527 11.655 16.7527 11.9625C16.7527 12.8775 16.2127 13.7025 15.3802 14.0775L10.3252 16.3275C10.0702 16.44 9.78523 16.5 9.50023 16.5Z" fill="#D7531B"/>
</svg>
