<svg width="18" height="19" viewBox="0 0 18 19" fill="none" xmlns="http://www.w3.org/2000/svg">
<path d="M7.8825 8.915L6.2325 2.2925C6.195 2.12 6.0375 2 5.8575 2C3.45 2 1.5 3.95 1.5 6.3575V10.6325C1.5 10.8875 1.7475 11.075 1.995 11L7.62 9.3725C7.815 9.32 7.935 9.1175 7.8825 8.915Z" fill="#D7531B"/>
<path d="M8.34 10.76C8.2875 10.55 8.07 10.4225 7.86 10.4825L1.7775 12.2525C1.6125 12.305 1.5 12.455 1.5 12.6275V12.6425C1.5 15.05 3.45 17 5.8575 17H9.3975C9.645 17 9.8325 16.7675 9.7725 16.52L8.34 10.76Z" fill="#D7531B"/>
<path d="M12.1421 2H7.82963C7.58213 2 7.39463 2.2325 7.45463 2.48L11.0096 16.7075C11.0546 16.88 11.2046 17 11.3846 17H12.1346C14.5496 17 16.4996 15.05 16.4996 12.6425V6.3575C16.4996 3.95 14.5496 2 12.1421 2Z" fill="#D7531B"/>
</svg>
