<svg width="20" height="20" viewBox="0 0 20 20" fill="none" xmlns="http://www.w3.org/2000/svg">
<path d="M10.775 3.99164H6.125C2.70833 3.99164 1.66667 5.03331 1.66667 8.44997V11.55C1.66667 14.9666 2.70833 16.0083 6.125 16.0083H10.775C14.1917 16.0083 15.2333 14.9666 15.2333 11.55V8.44997C15.2333 5.03331 14.1917 3.99164 10.775 3.99164Z" fill="#D7531B"/>
<path d="M17.0167 7.5C16.9 7.49167 16.75 7.48334 16.5833 7.48334C16.2583 7.48334 16 7.74167 16 8.06667V11.9417C16 12.2667 16.2583 12.525 16.5833 12.525C16.75 12.525 16.8917 12.5167 17.0333 12.5083C18.3333 12.3583 18.3333 11.4417 18.3333 10.775V9.225C18.3333 8.55834 18.3333 7.64167 17.0167 7.5Z" fill="#D7531B"/>
</svg>
