<svg width="32" height="32" viewBox="0 0 32 32" fill="none" xmlns="http://www.w3.org/2000/svg">
<path d="M23.4667 7.07988L15.9334 3.02654C15.1334 2.59988 14.1867 2.59988 13.3867 3.02654L5.86672 7.07988C5.32006 7.38654 4.97339 7.97321 4.97339 8.61321C4.97339 9.26654 5.30672 9.85321 5.86672 10.1465L13.4001 14.1999C13.8001 14.4132 14.2401 14.5199 14.6667 14.5199C15.0934 14.5199 15.5467 14.4132 15.9334 14.1999L23.4667 10.1465C24.0134 9.85321 24.3601 9.26654 24.3601 8.61321C24.3601 7.97321 24.0134 7.38654 23.4667 7.07988Z" fill="#D7531B"/>
<path d="M12.1601 15.6135L5.16008 12.1201C4.61341 11.8401 4.00008 11.8801 3.48008 12.1868C2.97341 12.5068 2.66675 13.0535 2.66675 13.6535V20.2668C2.66675 21.4135 3.30675 22.4401 4.33341 22.9601L11.3334 26.4535C11.5734 26.5735 11.8401 26.6401 12.1067 26.6401C12.4134 26.6401 12.7334 26.5468 13.0134 26.3868C13.5201 26.0668 13.8267 25.5201 13.8267 24.9201V18.3068C13.8134 17.1601 13.1734 16.1335 12.1601 15.6135Z" fill="#D7531B"/>
<path d="M26.6667 13.6535V16.9335C26.0267 16.7468 25.3467 16.6668 24.6667 16.6668C22.8534 16.6668 21.08 17.2935 19.68 18.4135C17.76 19.9201 16.6667 22.2001 16.6667 24.6668C16.6667 25.3201 16.7467 25.9735 16.92 26.6001C16.72 26.5735 16.52 26.4935 16.3334 26.3735C15.8267 26.0668 15.52 25.5201 15.52 24.9201V18.3068C15.52 17.1601 16.16 16.1335 17.1734 15.6135L24.1734 12.1201C24.72 11.8401 25.3334 11.8801 25.8534 12.1868C26.36 12.5068 26.6667 13.0535 26.6667 13.6535Z" fill="#D7531B"/>
<path d="M29.3334 20.9332C29.3334 20.9198 29.3201 20.9065 29.3067 20.8932C29.2534 20.8132 29.1867 20.7332 29.1201 20.6665C29.1067 20.6532 29.0934 20.6265 29.0801 20.6132C28.0001 19.4132 26.4134 18.6665 24.6667 18.6665C22.9867 18.6665 21.4534 19.3598 20.3601 20.4798C19.3067 21.5598 18.6667 23.0398 18.6667 24.6665C18.6667 25.7865 18.9867 26.8532 19.5334 27.7598C19.8267 28.2532 20.2001 28.7065 20.6267 29.0798C20.6534 29.0932 20.6667 29.1065 20.6801 29.1198C20.7467 29.1865 20.8134 29.2398 20.8934 29.3065C20.8934 29.3065 20.8934 29.3065 20.9067 29.3065C20.9201 29.3198 20.9334 29.3332 20.9467 29.3332C21.9467 30.1732 23.2401 30.6665 24.6667 30.6665C26.8534 30.6665 28.7601 29.4932 29.8001 27.7598C30.1067 27.2398 30.3467 26.6665 30.4934 26.0665C30.6134 25.6132 30.6667 25.1465 30.6667 24.6665C30.6667 23.2532 30.1734 21.9465 29.3334 20.9332ZM26.9067 25.6398H25.6667V26.9332C25.6667 27.4798 25.2134 27.9332 24.6667 27.9332C24.1201 27.9332 23.6667 27.4798 23.6667 26.9332V25.6398H22.4267C21.8801 25.6398 21.4267 25.1865 21.4267 24.6398C21.4267 24.0932 21.8801 23.6398 22.4267 23.6398H23.6667V22.4532C23.6667 21.9065 24.1201 21.4532 24.6667 21.4532C25.2134 21.4532 25.6667 21.9065 25.6667 22.4532V23.6398H26.9067C27.4534 23.6398 27.9067 24.0932 27.9067 24.6398C27.9067 25.1865 27.4667 25.6398 26.9067 25.6398Z" fill="#D7531B"/>
</svg>
