<svg width="20" height="20" viewBox="0 0 20 20" fill="none" xmlns="http://www.w3.org/2000/svg">
<path d="M15.5583 1.66669H13.975C12.1583 1.66669 11.2 2.62502 11.2 4.44169V6.02502C11.2 7.84169 12.1583 8.80002 13.975 8.80002H15.5583C17.375 8.80002 18.3333 7.84169 18.3333 6.02502V4.44169C18.3333 2.62502 17.375 1.66669 15.5583 1.66669Z" fill="#D7531B"/>
<path d="M6.03334 11.1917H4.45001C2.62501 11.1917 1.66667 12.15 1.66667 13.9667V15.55C1.66667 17.375 2.625 18.3333 4.44167 18.3333H6.025C7.84167 18.3333 8.80001 17.375 8.80001 15.5583V13.975C8.80834 12.15 7.85 11.1917 6.03334 11.1917Z" fill="#D7531B"/>
<path d="M5.24167 8.81669C7.21609 8.81669 8.81667 7.2161 8.81667 5.24169C8.81667 3.26727 7.21609 1.66669 5.24167 1.66669C3.26725 1.66669 1.66667 3.26727 1.66667 5.24169C1.66667 7.2161 3.26725 8.81669 5.24167 8.81669Z" fill="#D7531B"/>
<path d="M14.7583 18.3333C16.7328 18.3333 18.3333 16.7328 18.3333 14.7583C18.3333 12.7839 16.7328 11.1833 14.7583 11.1833C12.7839 11.1833 11.1833 12.7839 11.1833 14.7583C11.1833 16.7328 12.7839 18.3333 14.7583 18.3333Z" fill="#D7531B"/>
</svg>
