<svg width="18" height="18" viewBox="0 0 18 18" fill="none" xmlns="http://www.w3.org/2000/svg">
<path d="M10.7623 1.5H7.23732C6.45732 1.5 5.81982 2.13 5.81982 2.91V3.615C5.81982 4.395 6.44982 5.025 7.22982 5.025H10.7623C11.5423 5.025 12.1723 4.395 12.1723 3.615V2.91C12.1798 2.13 11.5423 1.5 10.7623 1.5Z" fill="#D7531B"/>
<path d="M12.9298 3.61498C12.9298 4.80748 11.9548 5.78248 10.7623 5.78248H7.23728C6.04478 5.78248 5.06979 4.80748 5.06979 3.61498C5.06979 3.19498 4.61979 2.93248 4.24479 3.12748C3.18729 3.68998 2.46729 4.80748 2.46729 6.08998V13.1475C2.46729 14.9925 3.97479 16.5 5.81979 16.5H12.1798C14.0248 16.5 15.5323 14.9925 15.5323 13.1475V6.08998C15.5323 4.80748 14.8123 3.68998 13.7548 3.12748C13.3798 2.93248 12.9298 3.19498 12.9298 3.61498ZM9.28479 12.7125H5.99979C5.69229 12.7125 5.43729 12.4575 5.43729 12.15C5.43729 11.8425 5.69229 11.5875 5.99979 11.5875H9.28479C9.59229 11.5875 9.84729 11.8425 9.84729 12.15C9.84729 12.4575 9.59229 12.7125 9.28479 12.7125ZM11.2498 9.71248H5.99979C5.69229 9.71248 5.43729 9.45748 5.43729 9.14998C5.43729 8.84248 5.69229 8.58748 5.99979 8.58748H11.2498C11.5573 8.58748 11.8123 8.84248 11.8123 9.14998C11.8123 9.45748 11.5573 9.71248 11.2498 9.71248Z" fill="#D7531B"/>
</svg>
