<svg width="26" height="26" viewBox="0 0 26 26" fill="none" xmlns="http://www.w3.org/2000/svg">
<path d="M22.0253 4.34764C17.1403 -0.507769 9.20308 -0.483705 4.34767 4.40124C-0.50774 9.28618 -0.483676 17.2234 4.40127 22.0788C9.28621 26.9342 17.2234 26.9102 22.0789 22.0252C26.9343 17.1403 26.9102 9.20305 22.0253 4.34764ZM16.0986 17.403L13.2173 14.5391L10.3534 17.4204C9.99209 17.7839 9.39105 17.7857 9.02756 17.4244C8.66407 17.0631 8.66225 16.4621 9.02354 16.0986L11.8874 13.2173L9.00613 10.3534C8.64264 9.99206 8.64081 9.39102 9.00211 9.02753C9.3634 8.66404 9.96444 8.66222 10.3279 9.02351L13.2092 11.8874L16.0731 9.0061C16.4344 8.64261 17.0355 8.64079 17.399 9.00208C17.7624 9.36337 17.7643 9.96441 17.403 10.3279L14.5391 13.2092L17.4204 16.0731C17.7839 16.4344 17.7857 17.0354 17.4244 17.3989C17.0631 17.7624 16.4621 17.7642 16.0986 17.403Z" fill="#555555" fill-opacity="0.81"/>
</svg>
