<svg width="16" height="16" viewBox="0 0 16 16" fill="none" xmlns="http://www.w3.org/2000/svg">
<path d="M8.75715 1.18999L13.1821 3.15499C14.4571 3.71749 14.4571 4.64749 13.1821 5.20999L8.75715 7.17499C8.25465 7.39999 7.42965 7.39999 6.92715 7.17499L2.50215 5.20999C1.22715 4.64749 1.22715 3.71749 2.50215 3.15499L6.92715 1.18999C7.42965 0.96499 8.25465 0.96499 8.75715 1.18999Z" stroke="white" stroke-width="1.5" stroke-linecap="round" stroke-linejoin="round"/>
<path d="M1.25 7.25C1.25 7.88 1.7225 8.6075 2.3 8.8625L7.3925 11.1275C7.7825 11.3 8.225 11.3 8.6075 11.1275L13.7 8.8625C14.2775 8.6075 14.75 7.88 14.75 7.25" stroke="white" stroke-width="1.5" stroke-linecap="round" stroke-linejoin="round"/>
<path d="M1.25 11C1.25 11.6975 1.6625 12.3275 2.3 12.6125L7.3925 14.8775C7.7825 15.05 8.225 15.05 8.6075 14.8775L13.7 12.6125C14.3375 12.3275 14.75 11.6975 14.75 11" stroke="white" stroke-width="1.5" stroke-linecap="round" stroke-linejoin="round"/>
</svg>
