<svg width="39" height="39" viewBox="0 0 39 39" fill="none" xmlns="http://www.w3.org/2000/svg">
<path d="M27.0974 14.75H20.6849V24.6458C20.6849 25.295 20.1466 25.8333 19.4974 25.8333C18.8482 25.8333 18.3099 25.295 18.3099 24.6458V14.75H11.8974C6.83073 14.75 3.66406 17.9167 3.66406 22.9833V27.0842C3.66406 32.1667 6.83073 35.3333 11.8974 35.3333H27.0816C32.1482 35.3333 35.3149 32.1667 35.3149 27.1V22.9833C35.3307 17.9167 32.1641 14.75 27.0974 14.75Z" fill="#D7531B"/>
<path d="M20.6869 7.72027L23.9644 10.9978C24.2019 11.2353 24.5028 11.3461 24.8036 11.3461C25.1044 11.3461 25.4053 11.2353 25.6428 10.9978C26.1019 10.5386 26.1019 9.77861 25.6428 9.31944L20.3386 4.01527C19.8794 3.55611 19.1194 3.55611 18.6603 4.01527L13.3561 9.31944C12.8969 9.77861 12.8969 10.5386 13.3561 10.9978C13.8153 11.4569 14.5753 11.4569 15.0344 10.9978L18.3119 7.72027V14.7503H20.6869V7.72027Z" fill="#D7531B"/>
</svg>
