<svg width="20" height="20" viewBox="0 0 20 20" fill="none" xmlns="http://www.w3.org/2000/svg">
<path d="M17.5336 11.0667L16.7669 10.3167L10.3086 16.7667L11.0836 17.5416C11.7336 18.1916 12.4086 18.5166 13.0753 18.5166C13.7419 18.5166 14.4169 18.1916 15.0669 17.5416L17.5336 15.075C18.8586 13.7417 18.8586 12.4 17.5336 11.0667Z" fill="#D7531B"/>
<path d="M8.90833 2.44167C7.6 1.13333 6.225 1.13333 4.91667 2.44167L2.44167 4.90833C1.14167 6.21667 1.14167 7.59167 2.44167 8.9L3.20833 9.66667L9.66667 3.20833L8.90833 2.44167Z" fill="#D7531B"/>
<path d="M18.1755 3.28333C17.0839 6.00833 14.5922 9.56666 12.2172 11.8917C11.8755 9.74166 10.1589 8.05833 7.99219 7.75833C10.3255 5.37499 13.9089 2.84999 16.6422 1.74999C17.1255 1.56666 17.6089 1.70833 17.9089 2.00833C18.2255 2.32499 18.3755 2.79999 18.1755 3.28333Z" fill="#D7531B"/>
<path d="M11.4829 12.575C11.3163 12.7166 11.1496 12.8583 10.9829 12.9916L9.49128 14.1833C9.49128 14.1583 9.48294 14.125 9.48294 14.0916C9.36628 13.2 8.94961 12.375 8.27461 11.7C7.59128 11.0166 6.74128 10.6 5.80794 10.4833C5.78294 10.4833 5.74961 10.475 5.72461 10.475L6.93294 8.94997C7.04961 8.79997 7.17461 8.6583 7.30794 8.5083L7.87461 8.5833C9.66628 8.8333 11.1079 10.2416 11.3913 12.025L11.4829 12.575Z" fill="#D7531B"/>
<path d="M8.69082 14.6833C8.69082 15.5999 8.34082 16.4749 7.67415 17.1333C7.16582 17.6499 6.48249 17.9999 5.64915 18.0999L3.60749 18.3249C2.49082 18.4499 1.53249 17.4916 1.65749 16.3666L1.88249 14.3166C2.08249 12.4916 3.60749 11.3249 5.22415 11.2916C5.38249 11.2833 5.55749 11.2916 5.72415 11.3083C6.43249 11.3999 7.11582 11.7249 7.69082 12.2916C8.24915 12.8499 8.56582 13.5083 8.65749 14.1999C8.67415 14.3666 8.69082 14.5249 8.69082 14.6833Z" fill="#D7531B"/>
</svg>
