<svg width="20" height="20" viewBox="0 0 20 20" fill="none" xmlns="http://www.w3.org/2000/svg">
<path d="M9.99935 1.66675C5.40768 1.66675 1.66602 5.40841 1.66602 10.0001C1.66602 14.5917 5.40768 18.3334 9.99935 18.3334C14.591 18.3334 18.3327 14.5917 18.3327 10.0001C18.3327 5.40841 14.591 1.66675 9.99935 1.66675ZM13.6243 12.9751C13.5077 13.1751 13.2993 13.2834 13.0827 13.2834C12.9743 13.2834 12.866 13.2584 12.766 13.1917L10.1827 11.6501C9.54102 11.2667 9.06602 10.4251 9.06602 9.68341V6.26675C9.06602 5.92508 9.34935 5.64175 9.69102 5.64175C10.0327 5.64175 10.316 5.92508 10.316 6.26675V9.68341C10.316 9.98341 10.566 10.4251 10.8243 10.5751L13.4077 12.1167C13.7077 12.2917 13.8077 12.6751 13.6243 12.9751Z" fill="#D7531B"/>
</svg>
