<svg width="32" height="32" viewBox="0 0 32 32" fill="none" xmlns="http://www.w3.org/2000/svg">
<path d="M25.8267 6.52016L18.0134 3.04016C16.8667 2.53349 15.1334 2.53349 13.9867 3.04016L6.1734 6.52016C4.20007 7.40016 3.90674 8.60016 3.90674 9.24016C3.90674 9.88016 4.20007 11.0802 6.1734 11.9602L13.9867 15.4402C14.5601 15.6935 15.2801 15.8268 16.0001 15.8268C16.7201 15.8268 17.4401 15.6935 18.0134 15.4402L25.8267 11.9602C27.8001 11.0802 28.0934 9.88016 28.0934 9.24016C28.0934 8.60016 27.8134 7.40016 25.8267 6.52016Z" fill="#D7531B"/>
<path d="M15.9999 22.7198C15.4933 22.7198 14.9866 22.6132 14.5199 22.4132L5.53326 18.4132C4.15993 17.7998 3.09326 16.1598 3.09326 14.6532C3.09326 14.1065 3.53326 13.6665 4.07993 13.6665C4.6266 13.6665 5.0666 14.1065 5.0666 14.6532C5.0666 15.3732 5.6666 16.3065 6.33326 16.5998L15.3199 20.5998C15.7466 20.7865 16.2399 20.7865 16.6666 20.5998L25.6533 16.5998C26.3199 16.3065 26.9199 15.3865 26.9199 14.6532C26.9199 14.1065 27.3599 13.6665 27.9066 13.6665C28.4533 13.6665 28.8933 14.1065 28.8933 14.6532C28.8933 16.1465 27.8266 17.7998 26.4533 18.4132L17.4666 22.4132C17.0133 22.6132 16.5066 22.7198 15.9999 22.7198Z" fill="#D7531B"/>
<path d="M15.9999 29.3331C15.4933 29.3331 14.9866 29.2265 14.5199 29.0265L5.53326 25.0265C4.05326 24.3731 3.09326 22.8931 3.09326 21.2665C3.09326 20.7198 3.53326 20.2798 4.07993 20.2798C4.6266 20.2798 5.0666 20.7198 5.0666 21.2665C5.0666 22.1065 5.55993 22.8665 6.33326 23.2131L15.3199 27.2131C15.7466 27.3998 16.2399 27.3998 16.6666 27.2131L25.6533 23.2131C26.4133 22.8798 26.9199 22.1065 26.9199 21.2665C26.9199 20.7198 27.3599 20.2798 27.9066 20.2798C28.4533 20.2798 28.8933 20.7198 28.8933 21.2665C28.8933 22.8931 27.9333 24.3598 26.4533 25.0265L17.4666 29.0265C17.0133 29.2265 16.5066 29.3331 15.9999 29.3331Z" fill="#D7531B"/>
</svg>
