<svg width="28" height="28" viewBox="0 0 28 28" fill="none" xmlns="http://www.w3.org/2000/svg">
<path d="M14.0001 0.666504C6.65341 0.666504 0.666748 6.65317 0.666748 13.9998C0.666748 21.3465 6.65341 27.3332 14.0001 27.3332C21.3467 27.3332 27.3334 21.3465 27.3334 13.9998C27.3334 6.65317 21.3467 0.666504 14.0001 0.666504ZM20.3734 10.9332L12.8134 18.4932C12.6267 18.6798 12.3734 18.7865 12.1067 18.7865C11.8401 18.7865 11.5867 18.6798 11.4001 18.4932L7.62675 14.7198C7.24008 14.3332 7.24008 13.6932 7.62675 13.3065C8.01341 12.9198 8.65341 12.9198 9.04008 13.3065L12.1067 16.3732L18.9601 9.51984C19.3467 9.13317 19.9867 9.13317 20.3734 9.51984C20.7601 9.9065 20.7601 10.5332 20.3734 10.9332Z" fill="#D7531B"/>
</svg>
