<svg width="40" height="40" viewBox="0 0 40 40" fill="none" xmlns="http://www.w3.org/2000/svg">
<path d="M0 12.8C0 8.31958 0 6.07937 0.871948 4.36808C1.63893 2.86278 2.86278 1.63893 4.36808 0.871948C6.07937 0 8.31958 0 12.8 0H27.2C31.6804 0 33.9206 0 35.6319 0.871948C37.1372 1.63893 38.3611 2.86278 39.1281 4.36808C40 6.07937 40 8.31958 40 12.8V27.2C40 31.6804 40 33.9206 39.1281 35.6319C38.3611 37.1372 37.1372 38.3611 35.6319 39.1281C33.9206 40 31.6804 40 27.2 40H12.8C8.31958 40 6.07937 40 4.36808 39.1281C2.86278 38.3611 1.63893 37.1372 0.871948 35.6319C0 33.9206 0 31.6804 0 27.2V12.8Z" fill="#D7531B" fill-opacity="0.1"/>
<path d="M27.901 16.7458C26.9385 12.5108 23.2444 10.6041 19.9994 10.6041C19.9994 10.6041 19.9994 10.6041 19.9902 10.6041C16.7544 10.6041 13.051 12.5016 12.0885 16.7366C11.016 21.4666 13.9127 25.4725 16.5344 27.9933C17.506 28.9283 18.7527 29.3958 19.9994 29.3958C21.246 29.3958 22.4927 28.9283 23.4552 27.9933C26.0769 25.4725 28.9735 21.4758 27.901 16.7458ZM19.9994 21.3383C18.4044 21.3383 17.1119 20.0458 17.1119 18.4508C17.1119 16.8558 18.4044 15.5633 19.9994 15.5633C21.5944 15.5633 22.8869 16.8558 22.8869 18.4508C22.8869 20.0458 21.5944 21.3383 19.9994 21.3383Z" fill="#D7531B"/>
</svg>
