<svg width="40" height="40" viewBox="0 0 40 40" fill="none" xmlns="http://www.w3.org/2000/svg">
<path d="M0 12.8C0 8.31958 0 6.07937 0.871948 4.36808C1.63893 2.86278 2.86278 1.63893 4.36808 0.871948C6.07937 0 8.31958 0 12.8 0H27.2C31.6804 0 33.9206 0 35.6319 0.871948C37.1372 1.63893 38.3611 2.86278 39.1281 4.36808C40 6.07937 40 8.31958 40 12.8V27.2C40 31.6804 40 33.9206 39.1281 35.6319C38.3611 37.1372 37.1372 38.3611 35.6319 39.1281C33.9206 40 31.6804 40 27.2 40H12.8C8.31958 40 6.07937 40 4.36808 39.1281C2.86278 38.3611 1.63893 37.1372 0.871948 35.6319C0 33.9206 0 31.6804 0 27.2V12.8Z" fill="#D7531B" fill-opacity="0.1"/>
<path d="M24.584 12.2084H15.4173C12.6673 12.2084 10.834 13.5834 10.834 16.7917V23.2084C10.834 26.4167 12.6673 27.7917 15.4173 27.7917H24.584C27.334 27.7917 29.1673 26.4167 29.1673 23.2084V16.7917C29.1673 13.5834 27.334 12.2084 24.584 12.2084ZM25.0148 17.7909L22.1457 20.0825C21.5407 20.5684 20.7707 20.8067 20.0007 20.8067C19.2307 20.8067 18.4515 20.5684 17.8557 20.0825L14.9865 17.7909C14.6932 17.5525 14.6473 17.1125 14.8765 16.8192C15.1148 16.5259 15.5457 16.4709 15.839 16.7092L18.7082 19.0009C19.4048 19.56 20.5873 19.56 21.284 19.0009L24.1532 16.7092C24.4465 16.4709 24.8865 16.5167 25.1157 16.8192C25.354 17.1125 25.3081 17.5525 25.0148 17.7909Z" fill="#D7531B"/>
</svg>
