<svg width="40" height="40" viewBox="0 0 40 40" fill="none" xmlns="http://www.w3.org/2000/svg">
<path d="M0 12.8C0 8.31958 0 6.07937 0.871948 4.36808C1.63893 2.86278 2.86278 1.63893 4.36808 0.871948C6.07937 0 8.31958 0 12.8 0H27.2C31.6804 0 33.9206 0 35.6319 0.871948C37.1372 1.63893 38.3611 2.86278 39.1281 4.36808C40 6.07937 40 8.31958 40 12.8V27.2C40 31.6804 40 33.9206 39.1281 35.6319C38.3611 37.1372 37.1372 38.3611 35.6319 39.1281C33.9206 40 31.6804 40 27.2 40H12.8C8.31958 40 6.07937 40 4.36808 39.1281C2.86278 38.3611 1.63893 37.1372 0.871948 35.6319C0 33.9206 0 31.6804 0 27.2V12.8Z" fill="#D7531B" fill-opacity="0.1"/>
<path d="M19.1298 22.7042L17.434 24.4C17.0765 24.7575 16.5082 24.7575 16.1415 24.4092C16.0407 24.3084 15.9398 24.2167 15.839 24.1159C14.8948 23.1625 14.0423 22.1634 13.2815 21.1184C12.5298 20.0734 11.9248 19.0284 11.4848 17.9925C11.054 16.9475 10.834 15.9484 10.834 14.995C10.834 14.3717 10.944 13.7759 11.164 13.2259C11.384 12.6667 11.7323 12.1534 12.2182 11.695C12.8048 11.1175 13.4465 10.8334 14.1248 10.8334C14.3815 10.8334 14.6382 10.8884 14.8673 10.9984C15.1057 11.1084 15.3165 11.2734 15.4815 11.5117L17.6082 14.5092C17.7732 14.7384 17.8923 14.9492 17.9748 15.1509C18.0573 15.3434 18.1032 15.5359 18.1032 15.71C18.1032 15.93 18.039 16.15 17.9107 16.3609C17.7915 16.5717 17.6173 16.7917 17.3973 17.0117L16.7007 17.7359C16.5998 17.8367 16.554 17.9559 16.554 18.1025C16.554 18.1759 16.5632 18.24 16.5815 18.3134C16.609 18.3867 16.6365 18.4417 16.6548 18.4967C16.8198 18.7992 17.104 19.1934 17.5073 19.67C17.9198 20.1467 18.3598 20.6325 18.8365 21.1184C18.9282 21.21 19.029 21.3017 19.1207 21.3934C19.4873 21.7509 19.4965 22.3375 19.1298 22.7042Z" fill="#D7531B"/>
<path d="M29.1399 25.8025C29.1399 26.0592 29.0941 26.325 29.0024 26.5817C28.9749 26.655 28.9474 26.7283 28.9108 26.8017C28.7549 27.1317 28.5533 27.4433 28.2874 27.7367C27.8383 28.2317 27.3433 28.5892 26.7841 28.8183C26.7749 28.8183 26.7658 28.8275 26.7566 28.8275C26.2158 29.0475 25.6291 29.1667 24.9966 29.1667C24.0616 29.1667 23.0624 28.9467 22.0083 28.4975C20.9541 28.0483 19.8999 27.4433 18.8549 26.6825C18.4974 26.4167 18.1399 26.1508 17.8008 25.8667L20.7983 22.8692C21.0549 23.0617 21.2841 23.2083 21.4766 23.3092C21.5224 23.3275 21.5774 23.355 21.6416 23.3825C21.7149 23.41 21.7883 23.4192 21.8708 23.4192C22.0266 23.4192 22.1458 23.3642 22.2466 23.2633L22.9433 22.5758C23.1724 22.3467 23.3924 22.1725 23.6033 22.0625C23.8141 21.9342 24.0249 21.87 24.2541 21.87C24.4283 21.87 24.6116 21.9067 24.8133 21.9892C25.0149 22.0717 25.2258 22.1908 25.4549 22.3467L28.4891 24.5008C28.7274 24.6658 28.8924 24.8583 28.9933 25.0875C29.0849 25.3167 29.1399 25.5458 29.1399 25.8025Z" fill="#D7531B"/>
</svg>
