<svg width="40" height="40" viewBox="0 0 40 40" fill="none" xmlns="http://www.w3.org/2000/svg">
<path d="M0 12.8C0 8.31958 0 6.07937 0.871948 4.36808C1.63893 2.86278 2.86278 1.63893 4.36808 0.871948C6.07937 0 8.31958 0 12.8 0H27.2C31.6804 0 33.9206 0 35.6319 0.871948C37.1372 1.63893 38.3611 2.86278 39.1281 4.36808C40 6.07937 40 8.31958 40 12.8V27.2C40 31.6804 40 33.9206 39.1281 35.6319C38.3611 37.1372 37.1372 38.3611 35.6319 39.1281C33.9206 40 31.6804 40 27.2 40H12.8C8.31958 40 6.07937 40 4.36808 39.1281C2.86278 38.3611 1.63893 37.1372 0.871948 35.6319C0 33.9206 0 31.6804 0 27.2V12.8Z" fill="#D7531B" fill-opacity="0.1"/>
<path d="M20.0007 10.8334C14.9498 10.8334 10.834 14.9492 10.834 20C10.834 25.0509 14.9498 29.1667 20.0007 29.1667C25.0515 29.1667 29.1673 25.0509 29.1673 20C29.1673 14.9492 25.0515 10.8334 20.0007 10.8334ZM23.9882 23.2725C23.8598 23.4925 23.6307 23.6117 23.3923 23.6117C23.2732 23.6117 23.154 23.5842 23.044 23.5109L20.2023 21.815C19.4965 21.3934 18.974 20.4675 18.974 19.6517V15.8934C18.974 15.5175 19.2857 15.2059 19.6615 15.2059C20.0373 15.2059 20.349 15.5175 20.349 15.8934V19.6517C20.349 19.9817 20.624 20.4675 20.9082 20.6325L23.7498 22.3284C24.0798 22.5209 24.1898 22.9425 23.9882 23.2725Z" fill="#D7531B"/>
</svg>
