<svg width="129" height="50" viewBox="0 0 129 50" fill="none" xmlns="http://www.w3.org/2000/svg">
<path d="M18.9732 5.28903C18.098 5.75157 13.9523 7.92398 9.77578 10.1245C5.59936 12.3109 2.08307 14.1752 1.99085 14.2454C1.83716 14.3578 1.78117 16.6331 1.74535 24.7596L1.69968 35.1192L2.35689 35.4613C16.6314 43.0574 20.5747 45.11 20.7434 45.0542C21.1116 44.9286 38.9997 35.5522 39.1843 35.3834C39.338 35.2569 39.3944 32.8968 39.4299 24.8409L39.491 14.4531L37.0762 13.1846C35.7465 12.4862 31.4824 10.2343 27.6157 8.18208L20.5548 4.44799L18.9732 5.28903ZM22.6691 7.86347L24.6712 8.91817L23.0745 9.71674C22.2147 10.1652 21.3395 10.6136 21.1553 10.7118C20.9709 10.824 20.7408 10.9078 20.6335 10.9073C20.4344 10.9064 16.8274 9.02493 16.8279 8.91186C16.8281 8.85533 20.4369 6.86429 20.6209 6.8227C20.6516 6.8087 21.5687 7.27915 22.6691 7.86347ZM17.1566 10.7931L19.3727 11.9759L17.1155 13.1814L14.8429 14.401L12.6115 13.204L10.3649 12.0069L12.2536 11.0117C13.2977 10.451 14.2805 9.91824 14.4495 9.80592C14.6184 9.70773 14.8026 9.62374 14.8486 9.62394C14.8946 9.61001 15.934 10.1375 17.1566 10.7931ZM28.9205 11.0569C31.198 12.1976 31.2142 11.9998 28.8804 13.205C27.7749 13.7796 26.8076 14.27 26.7462 14.298C26.6081 14.3539 22.3438 12.1586 22.329 12.0313C22.3292 11.9889 23.2813 11.4702 24.4328 10.8817L26.5515 9.81687L27.01 10.0733C27.2544 10.2157 28.1257 10.6577 28.9205 11.0569ZM11.718 14.359L13.4449 15.2853L11.2031 16.4626L8.97676 17.6258L7.86117 17.0132C7.26517 16.6855 6.25656 16.1298 5.64524 15.8021L4.51433 15.1894L6.72541 14.026L8.9211 12.8768L9.45601 13.1618C9.74644 13.3044 10.7704 13.8601 11.718 14.359ZM34.667 14.1068C35.8743 14.7623 36.8676 15.3178 36.8674 15.3602C36.8673 15.4026 35.8999 15.9213 34.7176 16.5238L32.5681 17.6309L30.398 16.4483C29.1906 15.8069 28.1973 15.2655 28.1667 15.2512C28.1362 15.2228 32.2669 12.9797 32.4202 12.9521C32.4509 12.9381 33.4596 13.4655 34.667 14.1068ZM20.1385 15.4702L20.1738 17.9013L18.6075 18.7424C17.7323 19.205 16.6882 19.7516 16.2889 19.976L15.5519 20.3543L15.5626 17.9234L15.5734 15.4784L17.7694 14.2726C18.9672 13.5995 19.9807 13.0527 20.0267 13.0388C20.0727 13.039 20.1138 14.1275 20.1385 15.4702ZM23.7895 14.3415L25.9902 15.5243L25.9798 17.8845C25.974 19.1989 25.9387 20.2588 25.8774 20.2585C25.8314 20.2583 24.8075 19.7026 23.5849 19.0329L21.3844 17.8077L21.3946 15.4899C21.4002 14.2179 21.4508 13.1723 21.5121 13.1725C21.558 13.1727 22.5974 13.7003 23.7895 14.3415ZM14.3031 18.6811L14.2464 21.1259L11.8969 22.4158L9.56272 23.7058L9.60432 21.2185L9.6613 18.7171L11.888 17.4832C13.1165 16.8102 14.1606 16.2636 14.2373 16.2498C14.2985 16.2501 14.3243 17.3526 14.3031 18.6811ZM29.352 17.433C30.4065 18.003 31.415 18.5728 31.6137 18.6726C31.9345 18.8719 31.9495 18.9426 31.9396 21.2039C31.9339 22.49 31.8987 23.5357 31.868 23.5356C31.8374 23.5355 30.7828 22.9937 29.5294 22.3522L27.2675 21.155L27.2322 18.7239C27.2075 17.3811 27.2582 16.3072 27.3194 16.3216C27.3806 16.3502 28.2975 16.8489 29.352 17.433ZM37.4644 18.9528L37.4535 21.4119L35.4267 22.4913C34.3057 23.0941 33.3383 23.6128 33.2616 23.6407C33.2001 23.6828 33.1742 22.6086 33.1955 21.2518L33.2522 18.8211L35.3254 17.6572C36.4618 17.0262 37.4139 16.5075 37.4446 16.4935C37.4599 16.4935 37.4703 17.596 37.4644 18.9528ZM6.21938 17.6137L8.28255 18.7252L8.31786 21.1422L8.33784 23.5591L6.16781 22.3623L3.9824 21.1796L3.94678 18.8333C3.93713 17.5471 3.97244 16.4872 4.04904 16.4876C4.11031 16.4879 5.08853 16.9868 6.21938 17.6137ZM17.2842 23.5561C18.415 24.183 19.332 24.6817 19.3166 24.6957C19.0861 24.8502 14.8946 26.9941 14.8333 26.9939C14.7873 26.9937 13.7939 26.4663 12.6019 25.8251C11.1347 25.0413 10.5084 24.6287 10.6619 24.5587C10.7694 24.5026 11.7215 23.9697 12.7811 23.3949C13.8406 22.8201 14.823 22.3722 14.9608 22.4011C15.1139 22.4159 16.1533 22.9434 17.2842 23.5561ZM28.9727 23.5511L31.1582 24.7055L29.8224 25.3922C29.0701 25.7705 28.0721 26.2749 27.5962 26.5131L26.7212 26.9332L24.7649 25.8928C23.695 25.3369 22.7169 24.8097 22.6254 24.7245C22.488 24.6249 23.041 24.274 24.5457 23.4892C25.6973 22.8865 26.6799 22.3821 26.7106 22.3822C26.7412 22.3823 27.7653 22.9098 28.9727 23.5511ZM6.22186 24.002L8.3308 25.1561L8.32021 27.5588L8.30962 29.9614L7.97347 29.762C7.77483 29.6481 6.78154 29.0925 5.75767 28.5227L3.87795 27.4968L3.88817 25.1789C3.89384 23.8928 3.94441 22.8472 4.00568 22.8474C4.05164 22.8476 5.04511 23.3608 6.22186 24.002ZM37.436 25.3834L37.4255 27.7719L35.3986 28.8512C34.2777 29.454 33.3103 29.9727 33.2489 30.0007C33.1722 30.0286 33.1308 28.9825 33.1366 27.6682L33.1471 25.2797L35.1896 24.1439C36.2953 23.5269 37.2627 23.0082 37.3393 23.0085C37.4006 22.9947 37.4418 24.069 37.436 25.3834ZM23.2287 26.8613L25.3377 28.0012L23.0962 29.1362C21.8678 29.7668 20.7933 30.2708 20.7167 30.2705C20.4563 30.2693 16.422 28.0185 16.4532 27.8914C16.4687 27.8349 17.421 27.2738 18.5727 26.6429C19.9548 25.8858 20.7375 25.55 20.8904 25.6214C21.0127 25.6784 22.0672 26.2343 23.2287 26.8613ZM12.717 27.5075L14.123 28.2769L14.1585 30.6373C14.1834 31.9377 14.194 33.0119 14.1939 33.026C14.1939 33.0402 13.1393 32.4984 11.8708 31.8144L9.54776 30.5746L9.54291 28.2002L9.55343 25.8116L10.4399 26.2678C10.9137 26.5243 11.9376 27.08 12.717 27.5075ZM31.9082 28.3129L31.8978 30.6731L29.5945 31.9067C28.3354 32.5796 27.2607 33.126 27.2147 33.1258C27.1688 33.1256 27.1581 32.0656 27.1792 30.7513L27.2356 28.3912L29.4622 27.1714C30.6907 26.4984 31.7349 25.9377 31.8115 25.938C31.8728 25.9383 31.914 26.9985 31.9082 28.3129ZM25.9198 31.4806L25.909 33.9398L24.1125 34.8788C23.1144 35.4115 22.0703 35.9581 21.8093 36.0983L21.3025 36.3787L21.3134 33.9195L21.3395 31.4746L23.5967 30.2549C24.8405 29.5961 25.8693 29.0353 25.9 29.0355C25.9154 29.0214 25.9258 30.1239 25.9198 31.4806ZM17.1641 29.9439C17.974 30.3997 18.9368 30.9269 19.2883 31.1122L19.9303 31.4401L19.9657 33.8288C19.9906 35.1292 19.9705 36.2032 19.9399 36.2031C19.894 36.2029 18.8852 35.6897 17.6778 35.0483L15.4922 33.8939L15.5028 31.5054C15.5086 30.191 15.5439 29.117 15.5899 29.1172C15.6358 29.1174 16.3542 29.4881 17.1641 29.9439ZM6.1785 30.3619L8.30276 31.516L8.29254 33.8339C8.28694 35.1059 8.23637 36.1515 8.1751 36.1512C8.0985 36.1509 7.12028 35.6519 5.98937 35.0392L3.9262 33.9277L3.89065 31.5673C3.88106 30.2669 3.90105 29.207 3.94701 29.2072C4.00828 29.2075 5.00176 29.7207 6.1785 30.3619ZM37.4077 31.8139L37.3974 34.1459L35.34 35.1969C34.2191 35.7855 33.2519 36.2618 33.1906 36.2615C33.1294 36.2613 33.1187 35.2012 33.1397 33.9151L33.196 31.5692L35.1767 30.5321C36.2669 29.9574 37.2187 29.4952 37.2953 29.4956C37.3566 29.4958 37.4133 30.542 37.4077 31.8139ZM14.2226 36.9552C14.245 38.821 14.2122 39.3013 14.0593 39.2441C13.9523 39.2013 12.8976 38.6595 11.7208 38.0325L9.58112 36.9065L9.54582 34.4895L9.52577 32.0868L11.8487 33.3408L14.187 34.5948L14.2226 36.9552ZM31.8497 34.6444L31.7934 36.9903L29.5669 38.1677C28.3386 38.8124 27.3098 39.345 27.2639 39.3448C27.2179 39.3445 27.1765 38.3126 27.1515 37.0405L27.131 34.7367L29.3883 33.517C30.6474 32.8442 31.7068 32.2976 31.7834 32.298C31.8447 32.2982 31.8707 33.3584 31.8497 34.6444ZM20.0605 40.1186C20.0548 41.4047 19.9891 42.422 19.9126 42.3934C19.8361 42.3648 18.8121 41.8374 17.62 41.2103L15.465 40.0701L15.4754 37.724L15.4858 35.3637L17.7783 36.5752L20.0708 37.7866L20.0605 40.1186ZM25.8922 37.7558L25.8817 40.1301L24.2387 40.9992C23.3175 41.4756 22.2887 42.0223 21.9354 42.2327L21.2752 42.5832L21.301 40.2089L21.3114 37.8345L23.5687 36.6148C24.8125 35.9419 25.8413 35.3953 25.872 35.3813C25.8873 35.3813 25.8979 36.4555 25.8922 37.7558Z" fill="#D7531B"/>
<path d="M45.7434 17.4346C45.7429 17.5477 47.1351 21.4405 48.8303 26.0979L51.9027 34.5773L53.8788 34.5861L55.8549 34.5948L59.0636 26.0582C60.8307 21.3595 62.2725 17.4792 62.2728 17.4085C62.2884 17.3521 61.4767 17.3061 60.4809 17.3017L58.6733 17.2937L57.7735 19.8621C56.2685 24.1944 54.0814 30.3328 53.9888 30.4878C53.9425 30.5583 53.5333 29.5672 53.0947 28.2932C52.2477 25.8161 49.783 18.4841 49.5414 17.7057L49.4055 17.2529L47.5825 17.2448C46.1119 17.2384 45.7441 17.2791 45.7434 17.4346Z" fill="#D7531B"/>
<path d="M103.46 26.1831L103.422 34.875L105.03 34.8821L106.639 34.8892L106.677 26.1973L106.715 17.5054L105.107 17.4983L103.499 17.4912L103.46 26.1831Z" fill="#D7531B"/>
<path d="M110.482 17.6629C109.561 17.9133 109.021 18.8439 109.216 19.8201C109.501 21.2209 111.597 21.7673 112.674 20.7118C113.182 20.2052 113.279 19.0464 112.838 18.4084C112.533 17.9405 111.723 17.5129 111.202 17.5389C111.049 17.5382 110.727 17.6075 110.482 17.6629Z" fill="#D7531B"/>
<path d="M116.364 21.039L116.371 22.7068L115.56 22.7173L114.732 22.7278L114.681 24.0137L114.629 25.3138L115.517 25.3177L116.406 25.3216L116.39 28.8973C116.373 32.7274 116.433 33.1517 117.164 33.9605C117.988 34.8687 119.625 35.2434 121.863 35.0412L122.874 34.9326L122.88 33.7172L122.885 32.4876L121.797 32.5252C120.479 32.5759 119.898 32.3896 119.686 31.8092C119.58 31.5543 119.525 30.1266 119.533 28.36L119.546 25.3355L121.231 25.3429L122.916 25.3503L122.922 24.0359L122.928 22.7357L121.243 22.7707L119.557 22.8056L119.565 21.1097L119.572 19.3995L117.949 19.3924L116.34 19.3853L116.364 21.039Z" fill="#D7531B"/>
<path d="M66.1891 22.1464C65.177 22.368 63.8103 23.1252 63.087 23.8711C61.0558 25.9256 60.5984 28.9199 61.8734 31.5826C63.3155 34.5853 67.599 35.9186 71.0522 34.4498C73.4925 33.4147 74.8346 31.3006 74.8625 28.4599C74.8901 25.6757 73.3374 23.4216 70.6917 22.4206C69.7281 22.063 67.2165 21.9106 66.1891 22.1464ZM69.6081 24.974C71.7788 26.0012 72.4088 29.0426 70.8834 31.057C69.9743 32.2543 67.8121 32.7536 66.4363 32.0833C64.5408 31.1562 63.8176 28.4112 64.9601 26.3951C65.8712 24.7455 67.8653 24.1466 69.6081 24.974Z" fill="#D7531B"/>
<path d="M93.4554 22.2666C91.8147 22.6127 90.2163 23.8069 89.4439 25.2593C87.6519 28.6575 88.7825 32.8178 91.916 34.3863C94.1477 35.4985 96.6908 35.4814 99.1467 34.3616C100.498 33.7315 101.281 33.1838 101.283 32.8587C101.284 32.4913 100.262 31.6105 99.8176 31.6085C99.6338 31.6077 98.9741 31.8309 98.3448 32.0967C96.6565 32.8242 95.7521 32.9616 94.6198 32.6598C93.457 32.3296 92.3736 31.3637 92.0564 30.3447C91.9355 29.9767 91.8604 29.623 91.8913 29.5666C91.9375 29.5103 94.0976 29.4916 96.7324 29.5173L101.496 29.5666L101.41 28.2942C101.209 25.1981 99.7477 23.1423 97.2386 22.4104C96.1829 22.109 94.5287 22.0451 93.4554 22.2666ZM96.2175 24.6814C97.0894 24.9821 97.9274 26.0034 98.168 27.0362L98.2731 27.503L95.0256 27.4887L91.778 27.4744L91.8873 27.0085C92.1369 25.992 92.7684 25.2174 93.7355 24.7553C94.2728 24.4891 95.5904 24.4525 96.2175 24.6814Z" fill="#D7531B"/>
<path d="M75.2864 22.3844C75.2863 22.4127 76.276 23.788 77.4789 25.4328L79.6871 28.4106L77.9765 30.7068C77.0365 31.9605 75.9579 33.3832 75.5881 33.8763L74.9102 34.7637L76.8558 34.7298L78.8015 34.696L80.2044 32.6953C80.9752 31.5821 81.6379 30.6805 81.6839 30.6807C81.7298 30.695 82.3845 31.6025 83.1456 32.7082L84.5307 34.7213L86.5373 34.7725L88.5439 34.8238L86.1683 31.5909C84.8587 29.8184 83.7931 28.3015 83.7935 28.2025C83.7939 28.1177 84.688 26.8497 85.7974 25.3847C86.8915 23.9196 87.8469 22.6377 87.9087 22.539C88.0011 22.4122 87.6183 22.3681 86.1937 22.3619L84.3554 22.3538L83.076 24.1713C82.3668 25.1858 81.7351 26.0028 81.6892 26.0026C81.6431 26.0165 81.0034 25.1798 80.2879 24.1732L78.9632 22.33L77.125 22.3219C76.114 22.3174 75.2866 22.342 75.2864 22.3844Z" fill="#D7531B"/>
<path d="M109.422 28.6828L109.395 34.9014L111.003 34.9085L112.611 34.9155L112.639 28.697L112.666 22.4784L111.058 22.4713L109.449 22.4642L109.422 28.6828Z" fill="#D7531B"/>
</svg>
