<svg width="30" height="32" viewBox="0 0 30 32" fill="none" xmlns="http://www.w3.org/2000/svg">
<path d="M1.25024 0.632747C1.11466 0.764665 1.10336 0.812635 1.10336 1.29234C1.10336 1.76004 1.11466 1.82001 1.24459 1.95192L1.38016 2.10183H14.2882C23.9255 2.10183 27.2302 2.11982 27.3375 2.17379C27.6199 2.3057 27.6764 2.49159 27.699 3.28309L27.7216 4.02063H14.5537H1.38016L1.24459 4.17054C1.11466 4.30246 1.10336 4.36242 1.10336 4.84812C1.10336 5.68759 0.707929 5.60964 4.86562 5.62763L8.39062 5.63962V6.77292C8.39062 8.05612 8.43581 8.27798 8.78041 8.81764C9.00637 9.17142 9.4244 9.51321 9.84807 9.68111C10.0232 9.75306 10.3508 9.80103 10.8028 9.81902L11.4863 9.855L11.5089 11.1922C11.5258 12.6553 11.5315 12.6792 11.9156 12.979C12.0625 13.099 12.1529 13.105 13.9267 13.123C15.0847 13.135 15.8699 13.117 15.9999 13.081C16.1185 13.045 16.3049 12.9191 16.4123 12.8052L16.61 12.5893L16.6269 11.2221L16.6439 9.855L17.333 9.81902C18.1578 9.78304 18.4855 9.68111 18.9091 9.33332C19.2707 9.02751 19.4853 8.71571 19.6322 8.25999C19.7282 7.96618 19.7452 7.7623 19.7452 6.77892V5.63962H20.7055H21.6659V6.40715C21.6659 7.43251 21.6489 7.41452 22.4341 7.38454C22.7731 7.37854 23.0668 7.35456 23.0894 7.34256C23.1177 7.32458 23.1346 6.93482 23.1346 6.47311V5.63962H25.4507H27.7668V15.5934V25.5472H24.1797H20.5925V25.1994C20.5925 24.6538 20.5417 24.6178 19.8582 24.6178C19.0843 24.6178 19.1125 24.5698 19.1351 25.865C19.152 26.8604 19.152 26.8724 19.2933 26.9863C19.4288 27.1002 19.5814 27.1062 23.6035 27.1062H27.7668V28.0656V29.025L23.53 29.037C20.1519 29.049 19.282 29.073 19.2255 29.133C19.1803 29.1809 19.1464 29.4208 19.1351 29.7926C19.1068 30.716 18.4685 30.6141 24.1458 30.6141C28.9362 30.6141 29.004 30.6141 29.0887 30.4941C29.1678 30.3862 29.1734 28.7972 29.1621 16.343L29.1508 2.3117L28.9757 1.92194C28.7441 1.41826 28.4617 1.07647 28.0719 0.842616C27.4505 0.458856 28.3826 0.482841 14.2882 0.482841H1.40276L1.25024 0.632747ZM18.316 6.68298C18.3047 7.63638 18.2934 7.74431 18.1861 7.90022C17.9149 8.28997 18.0561 8.27798 14.0962 8.27798H10.5034L10.2548 8.14007C9.84807 7.9242 9.80288 7.7623 9.80288 6.61702V5.63962H14.0679H18.3273L18.316 6.68298ZM15.226 10.7664V11.6958H14.0962H12.9663V10.7664V9.83701H14.0962H15.226V10.7664Z" fill="#555555"/>
<path d="M8.10817 14.1963C7.96129 14.2563 7.76358 14.4781 7.69014 14.664C7.6054 14.8739 7.50372 15.4555 7.44158 16.0312L7.40204 16.4449L7.06874 16.5888C6.88233 16.6668 6.70156 16.7327 6.66766 16.7327C6.62812 16.7327 6.40781 16.5648 6.18185 16.361C5.57175 15.8213 5.3006 15.6534 5.03509 15.6534C4.82043 15.6534 4.76959 15.6954 3.83185 16.6847C3.28954 17.2544 2.83761 17.7821 2.82067 17.854C2.76418 18.0939 2.84326 18.2618 3.35733 19.0173L3.86574 19.7488L3.70192 20.0966C3.52115 20.4744 3.52115 20.4744 2.82632 20.5403C2.34615 20.5823 1.91682 20.6783 1.71346 20.7862C1.4649 20.9241 1.431 21.17 1.4536 22.687L1.47055 24.0601L1.62307 24.1981C1.79819 24.36 2.07499 24.4319 2.93365 24.5339L3.54374 24.6118L3.68497 24.9416C3.76406 25.1275 3.83749 25.2954 3.84879 25.3194C3.86009 25.3374 3.69627 25.5952 3.48725 25.889C2.94495 26.6325 2.83761 26.8364 2.83761 27.1182C2.83761 27.3461 2.87716 27.4001 3.73581 28.3175C4.23293 28.8452 4.70745 29.3129 4.79783 29.3668C5.09723 29.5347 5.45312 29.3608 6.26658 28.6533C6.48689 28.4614 6.69026 28.3055 6.71285 28.3055C6.73545 28.3055 6.90492 28.3835 7.08569 28.4854L7.41899 28.6593L7.45853 29.067C7.55456 30.0564 7.72968 30.638 7.97259 30.758C8.06298 30.7999 8.55444 30.8239 9.37355 30.8239C10.5768 30.8239 10.6446 30.8179 10.7858 30.698C11.0231 30.5001 11.1756 29.9785 11.249 29.127C11.2886 28.6233 11.3055 28.5993 11.7744 28.4014L12.0173 28.2995L12.2715 28.5274C12.7121 28.9291 13.1245 29.2409 13.3561 29.3548C13.7685 29.5527 13.8532 29.4928 14.9322 28.3475C16.158 27.0343 16.1467 27.1062 15.2937 25.973C15.0621 25.6611 14.8701 25.3793 14.8701 25.3433C14.8701 25.3074 14.9379 25.1215 15.0169 24.9296C15.1582 24.6058 15.1808 24.5878 15.3728 24.5878C15.7457 24.5878 16.7173 24.3959 16.9263 24.282C17.2314 24.1201 17.2596 23.9642 17.2596 22.5371C17.2596 21.1879 17.2201 20.9601 16.9659 20.7922C16.7907 20.6723 16.3275 20.5763 15.7061 20.5224L15.1977 20.4804L15.0169 20.1206C14.9153 19.9227 14.8305 19.7488 14.8305 19.7308C14.8305 19.7129 14.9774 19.509 15.1525 19.2811C15.6327 18.6455 15.9038 18.1778 15.9038 17.9739C15.9038 17.818 15.7626 17.6382 14.9605 16.7747C14.4351 16.223 13.9606 15.7373 13.8984 15.7014C13.8419 15.6654 13.7233 15.6354 13.6386 15.6414C13.4691 15.6474 12.9776 15.9532 12.5709 16.313C12.0455 16.7747 12.0512 16.7687 11.6445 16.5888L11.2829 16.4269L11.249 15.9952C11.1417 14.742 11.0118 14.3642 10.6502 14.2323C10.4469 14.1663 8.27199 14.1303 8.10817 14.1963ZM9.9893 16.4749C10.0401 16.9246 10.1249 17.3563 10.1701 17.4283C10.2153 17.5062 10.4186 17.6262 10.6615 17.7221C10.8875 17.812 11.2547 17.9919 11.475 18.1179C12.0399 18.4417 12.1868 18.4357 12.6387 18.0339C12.8364 17.86 13.1076 17.6262 13.2488 17.5062L13.503 17.2904L13.9097 17.6861L14.3165 18.0879L13.8363 18.7295C13.5256 19.1432 13.3448 19.437 13.3222 19.563C13.2996 19.7189 13.3561 19.8987 13.5764 20.3964C13.7346 20.7442 13.8928 21.14 13.9323 21.2779C13.9662 21.4158 14.0453 21.5717 14.1018 21.6257C14.2148 21.7336 14.7288 21.8535 15.3276 21.9195C15.8756 21.9794 15.9095 22.0214 15.8925 22.627C15.8812 23.0108 15.8586 23.1187 15.7909 23.1307C14.3165 23.3106 14.1809 23.3526 14.0284 23.6884C13.6273 24.5578 13.3053 25.3433 13.3053 25.4393C13.3053 25.6132 13.39 25.7571 13.8815 26.3987C14.13 26.7225 14.3165 27.0103 14.2995 27.0403C14.2826 27.0703 14.0905 27.2622 13.8702 27.466L13.4748 27.8378L13.1528 27.514C12.5031 26.8664 12.3393 26.7465 12.119 26.7465C11.9326 26.7465 10.5147 27.3761 10.3226 27.544C10.1757 27.6699 10.091 27.9277 10.0345 28.4314C10.0006 28.7072 9.9554 29.037 9.93846 29.157L9.90456 29.3848H9.3792H8.85949L8.8256 29.097C8.69002 27.7898 8.59963 27.568 8.12511 27.3761C7.97824 27.3161 7.59975 27.1362 7.28906 26.9743C6.97836 26.8184 6.67331 26.6865 6.60552 26.6865C6.4643 26.6865 6.131 26.9324 5.61694 27.4181C5.41358 27.6099 5.21586 27.7658 5.18761 27.7658C5.10288 27.7658 4.43629 27.0763 4.43629 26.9923C4.43629 26.9563 4.60576 26.7105 4.80913 26.4347C5.27235 25.829 5.39663 25.6192 5.39663 25.4333C5.39663 25.3553 5.27235 25.0315 5.11983 24.7137C4.97295 24.3959 4.81478 24.0302 4.77523 23.8982C4.63401 23.4126 4.44194 23.3166 3.41947 23.1907C2.73593 23.1067 2.75853 23.1367 2.82632 22.3932L2.86021 21.9615L3.26129 21.9255C3.92788 21.8535 4.44194 21.7276 4.55492 21.6077C4.61141 21.5477 4.74699 21.2719 4.85997 20.9901C4.97295 20.7082 5.14242 20.3245 5.23846 20.1326C5.36838 19.8628 5.39663 19.7368 5.37403 19.5929C5.35144 19.485 5.13112 19.1192 4.85432 18.7535C4.58882 18.3937 4.3798 18.0819 4.3911 18.0579C4.4024 18.0339 4.57752 17.848 4.78088 17.6441L5.15372 17.2784L5.37403 17.4703C5.98978 18.0219 6.43605 18.3517 6.56598 18.3517C6.63942 18.3517 6.98966 18.2198 7.33425 18.0579C7.68449 17.902 8.06862 17.7281 8.1929 17.6861C8.48665 17.5722 8.65612 17.3024 8.70132 16.8646C8.72391 16.6788 8.75216 16.4569 8.76346 16.3729C8.77475 16.289 8.803 16.0971 8.81995 15.9352L8.85949 15.6534H9.37355H9.89326L9.9893 16.4749Z" fill="#555555"/>
<path d="M8.61093 18.9813C7.6393 19.1852 6.66766 20.0187 6.22139 21.014C6.04062 21.4158 5.90504 22.0814 5.90504 22.5491C5.90504 24.0721 6.88233 25.5172 8.22115 25.9849C9.57127 26.4587 10.8197 26.1468 11.8139 25.0975C13.4748 23.3346 12.955 20.3065 10.7971 19.2272C10.187 18.9214 9.34531 18.8254 8.61093 18.9813ZM10.2548 20.5823C11.5202 21.2239 11.7631 23.0468 10.7237 24.1201C10.3226 24.5339 10.0062 24.6658 9.3792 24.6658C8.5149 24.6718 7.94435 24.342 7.57151 23.6164C7.40769 23.3166 7.40204 23.2626 7.40204 22.5791C7.40204 21.9495 7.41899 21.8235 7.53197 21.5897C7.76358 21.098 8.22115 20.6663 8.71262 20.4744C9.06851 20.3305 9.87632 20.3904 10.2548 20.5823Z" fill="#555555"/>
</svg>
