<svg width="31" height="35" viewBox="0 0 31 35" fill="none" xmlns="http://www.w3.org/2000/svg">
<path d="M6.13314 12.9374C5.96662 12.9491 5.80245 12.8913 5.67675 12.7766C5.55105 12.6619 5.47411 12.4997 5.46286 12.3257C5.45161 12.1518 5.50697 11.9802 5.61676 11.8489C5.72655 11.7176 5.88178 11.6372 6.04829 11.6254L9.95115 11.0581C10.0337 11.0457 10.1178 11.0505 10.1986 11.0724C10.2793 11.0943 10.3551 11.1328 10.4214 11.1856C10.4878 11.2384 10.5434 11.3045 10.585 11.38C10.6266 11.4555 10.6534 11.539 10.6638 11.6254C10.6881 11.8017 10.6447 11.9808 10.5429 12.1237C10.4412 12.2665 10.2894 12.3615 10.1208 12.3878L6.21798 12.9374H6.13314Z" fill="#555555"/>
<path d="M11.3118 11.0926L10.9171 12.3567L17.9506 14.7543L18.3454 13.4902L11.3118 11.0926Z" fill="#555555"/>
<path d="M10.7148 12.1219H10.5281C10.3714 12.0689 10.2409 11.9537 10.1647 11.8012C10.0885 11.6486 10.0728 11.4709 10.1208 11.3063L11.5293 6.27136C11.58 6.10765 11.6902 5.97131 11.8362 5.89172C11.9822 5.81213 12.1523 5.79566 12.3098 5.84587C12.3899 5.86637 12.4651 5.90356 12.531 5.95522C12.5969 6.00687 12.6521 6.07192 12.6933 6.14645C12.7345 6.22098 12.7609 6.30345 12.7708 6.38889C12.7807 6.47434 12.774 6.561 12.751 6.64367L11.3256 11.6254C11.2889 11.7661 11.2095 11.8905 11.0994 11.98C10.9892 12.0695 10.8543 12.1193 10.7148 12.1219Z" fill="#555555"/>
<path d="M19.4198 14.6039C19.3147 14.6052 19.2111 14.5781 19.119 14.5253C19.0268 14.4725 18.9493 14.3958 18.8938 14.3025C18.8302 14.1994 18.7964 14.0794 18.7964 13.9568C18.7964 13.8342 18.8302 13.7141 18.8938 13.6111L21.7276 6.1118C21.8004 5.96614 21.9217 5.8533 22.0686 5.79452C22.2155 5.73575 22.3778 5.7351 22.5251 5.79268C22.6725 5.85255 22.7937 5.96689 22.8656 6.11397C22.9376 6.26106 22.9553 6.43064 22.9154 6.59048L20.0646 14.1075C20.0239 14.2525 19.9387 14.3795 19.8223 14.4692C19.7058 14.5588 19.5645 14.6061 19.4198 14.6039Z" fill="#555555"/>
<path d="M11.4282 19.7534L4.75858 25.3181L5.55275 26.3571L12.2224 20.7924L11.4282 19.7534Z" fill="#555555"/>
<path d="M19.0974 14.8698L19.5895 13.6465L25.7662 16.4654L25.2571 17.671L19.0974 14.8698Z" fill="#555555"/>
<path d="M18.8768 21.7486L19.7592 20.7735L25.2402 26.1808L24.3578 27.1381L18.8768 21.7486Z" fill="#555555"/>
<path d="M11.2962 11.7736L10.049 12.0382L11.4202 19.0921L12.6674 18.8274L11.2962 11.7736Z" fill="#555555"/>
<path d="M12.0383 19.9934L18.9956 13.6111L19.8441 14.6039L12.8868 20.9862L12.0383 19.9934Z" fill="#555555"/>
<path d="M18.4696 21.0926L18.8768 14.0543L20.1495 14.1429L19.7253 21.1812L18.4696 21.0926Z" fill="#555555"/>
<path d="M12.1232 22.7946C13.3977 22.7946 14.431 21.7151 14.431 20.3835C14.431 19.0518 13.3977 17.9723 12.1232 17.9723C10.8486 17.9723 9.8154 19.0518 9.8154 20.3835C9.8154 21.7151 10.8486 22.7946 12.1232 22.7946Z" fill="#555555"/>
<path d="M19.5216 17.1036C21.0305 17.1036 22.2536 15.8257 22.2536 14.2493C22.2536 12.6729 21.0305 11.395 19.5216 11.395C18.0128 11.395 16.7896 12.6729 16.7896 14.2493C16.7896 15.8257 18.0128 17.1036 19.5216 17.1036Z" fill="#555555"/>
<path d="M19.5047 23.1491C20.2919 23.1491 20.9301 22.4824 20.9301 21.6599C20.9301 20.8375 20.2919 20.1707 19.5047 20.1707C18.7174 20.1707 18.0793 20.8375 18.0793 21.6599C18.0793 22.4824 18.7174 23.1491 19.5047 23.1491Z" fill="#555555"/>
<path d="M10.4772 13.0083C11.405 13.0083 12.1571 12.2225 12.1571 11.2531C12.1571 10.2838 11.405 9.49799 10.4772 9.49799C9.54939 9.49799 8.79726 10.2838 8.79726 11.2531C8.79726 12.2225 9.54939 13.0083 10.4772 13.0083Z" fill="#555555"/>
<path d="M17.1969 1.20094H13.8031V8.29244H17.1969V1.20094Z" fill="#555555"/>
<path d="M23.9845 1.20094H20.5907V8.29244H23.9845V1.20094Z" fill="#555555"/>
<path d="M10.4093 1.20094H7.01552V8.29244H10.4093V1.20094Z" fill="#555555"/>
<path d="M17.1969 26.0212H13.8031V33.1127H17.1969V26.0212Z" fill="#555555"/>
<path d="M23.9845 26.0212H20.5907V33.1127H23.9845V26.0212Z" fill="#555555"/>
<path d="M10.4093 26.0212H7.01552V33.1127H10.4093V26.0212Z" fill="#555555"/>
<path d="M7.01552 15.3839H0.227941V18.9297H7.01552V15.3839Z" fill="#555555"/>
<path d="M7.01552 8.29244H0.227941V11.8382H7.01552V8.29244Z" fill="#555555"/>
<path d="M7.01552 22.4754H0.227941V26.0212H7.01552V22.4754Z" fill="#555555"/>
<path d="M30.7721 15.3839H23.9845V18.9297H30.7721V15.3839Z" fill="#555555"/>
<path d="M30.7721 8.29244H23.9845V11.8382H30.7721V8.29244Z" fill="#555555"/>
<path d="M30.7721 22.4754H23.9845V26.0212H30.7721V22.4754Z" fill="#555555"/>
<path d="M25.6814 4.74669H5.31863C4.86858 4.74669 4.43697 4.93347 4.11874 5.26595C3.80051 5.59843 3.62173 6.04937 3.62173 6.51956V27.7941C3.62173 28.2643 3.80051 28.7152 4.11874 29.0477C4.43697 29.3802 4.86858 29.567 5.31863 29.567H25.6814C26.1314 29.567 26.563 29.3802 26.8813 29.0477C27.1995 28.7152 27.3783 28.2643 27.3783 27.7941V6.51956C27.3783 6.04937 27.1995 5.59843 26.8813 5.26595C26.563 4.93347 26.1314 4.74669 25.6814 4.74669ZM23.9845 25.0816C23.9845 25.205 23.9612 25.3272 23.916 25.4412C23.8708 25.5552 23.8046 25.6587 23.7211 25.746C23.6376 25.8332 23.5384 25.9025 23.4293 25.9497C23.3202 25.9969 23.2032 26.0212 23.0851 26.0212H7.91488C7.79677 26.0212 7.67982 25.9969 7.57071 25.9497C7.4616 25.9025 7.36245 25.8332 7.27894 25.746C7.19543 25.6587 7.12918 25.5552 7.08398 25.4412C7.03879 25.3272 7.01552 25.205 7.01552 25.0816V9.23206C7.01552 8.98286 7.11028 8.74386 7.27894 8.56765C7.4476 8.39144 7.67635 8.29244 7.91488 8.29244H23.0851C23.2032 8.29244 23.3202 8.31674 23.4293 8.36396C23.5384 8.41118 23.6376 8.4804 23.7211 8.56765C23.8046 8.6549 23.8708 8.75849 23.916 8.87249C23.9612 8.98649 23.9845 9.10867 23.9845 9.23206V25.0816Z" fill="#555555"/>
</svg>
