<svg width="34" height="35" viewBox="0 0 34 35" fill="none" xmlns="http://www.w3.org/2000/svg">
<g clip-path="url(#clip0_70_73)">
<path d="M3.98597 1.33101C3.1926 1.54344 2.62488 1.87307 2.0062 2.50303C1.3948 3.11834 1.01632 3.77028 0.812521 4.55408C0.696065 4.99358 0.688786 6.0191 0.710622 17.5196L0.732457 30.009L0.928978 30.5437C1.30018 31.5619 2.02804 32.4629 2.90146 32.9683C3.10526 33.0855 3.57837 33.276 3.93502 33.3932L4.59009 33.5983L16.4905 33.6203C23.7181 33.6349 28.6675 33.6129 29.0897 33.569C30.8074 33.4005 32.1466 32.4995 32.8381 31.0418C33.2821 30.1115 33.3112 29.8332 33.2894 26.6028L33.2675 23.7093L30.6691 23.6727L28.0634 23.6361L27.8305 23.3944L27.5903 23.16L27.5684 20.1566C27.5466 16.875 27.5466 16.8676 27.9688 16.5893C28.1435 16.4721 28.4419 16.4501 30.7201 16.4208L33.2675 16.3842L33.2894 13.0586C33.2967 10.8464 33.2821 9.63773 33.2239 9.43262C33.1584 9.16892 32.678 8.65616 29.3517 5.31589C25.7706 1.71192 25.5305 1.48484 25.1301 1.33833L24.708 1.18451L14.6126 1.19183C4.91034 1.19183 4.49546 1.19916 3.98597 1.33101ZM23.4706 5.14741C23.8928 5.24264 24.1766 5.45507 24.3513 5.79935C24.4823 6.06306 24.4969 6.23886 24.4969 7.74051C24.4969 8.96381 24.4678 9.4546 24.395 9.6304C24.264 9.95271 23.8273 10.319 23.4997 10.3922C23.3469 10.4215 22.2915 10.4508 21.1488 10.4508C19.1108 10.4508 19.0671 10.4508 18.725 10.275C18.5067 10.1651 18.3029 9.98934 18.1791 9.80621C17.9826 9.5132 17.9826 9.49855 17.9608 7.95294C17.9462 6.96405 17.968 6.29014 18.019 6.09968C18.1209 5.71145 18.5649 5.25729 18.9361 5.15474C19.3073 5.05951 23.0557 5.04486 23.4706 5.14741ZM15.4715 11.5496C16.3886 11.7034 17.0437 11.9158 17.8443 12.3261C19.7804 13.315 21.1706 14.9485 21.8693 17.0508C22.1678 17.9371 22.2624 18.5671 22.2624 19.6073C22.2551 21.8048 21.4181 23.7972 19.8532 25.2989C18.8342 26.2731 17.6842 26.9251 16.3085 27.306C15.6389 27.4891 15.4715 27.5111 14.2705 27.5111C13.0696 27.5111 12.9022 27.4891 12.2326 27.306C10.8132 26.9178 9.64139 26.2438 8.65879 25.2549C7.10846 23.6947 6.30054 21.7242 6.30054 19.4974C6.30054 17.7247 6.81732 16.1132 7.81448 14.7653C9.66323 12.2675 12.5091 11.0735 15.4715 11.5496Z" fill="#555555"/>
<path d="M13.5063 13.9815C12.793 14.0694 11.7231 14.5016 11.068 14.9558C10.6968 15.2195 9.98349 15.9373 9.72146 16.3109C7.96005 18.8894 8.57873 22.3175 11.1335 24.1195C12.087 24.8008 13.55 25.2037 14.6709 25.1011C16.8908 24.896 18.6377 23.6068 19.4383 21.585C20.2826 19.4388 19.7222 17.0434 17.9826 15.4099C17.0218 14.5089 15.8063 14.0035 14.4889 13.9669C14.0886 13.9522 13.6446 13.9595 13.5063 13.9815Z" fill="#555555"/>
</g>
<defs>
<clipPath id="clip0_70_73">
<rect width="34" height="33.4138" fill="white" transform="translate(0 0.793226)"/>
</clipPath>
</defs>
</svg>
