<svg width="48" height="48" viewBox="0 0 48 48" fill="none" xmlns="http://www.w3.org/2000/svg">
<rect width="48" height="48" rx="8" fill="#D7531B"/>
<path d="M33.8267 14.52L26.0133 11.04C24.8667 10.5333 23.1333 10.5333 21.9867 11.04L14.1733 14.52C12.2 15.4 11.9067 16.6 11.9067 17.24C11.9067 17.88 12.2 19.08 14.1733 19.96L21.9867 23.44C22.56 23.6933 23.28 23.8267 24 23.8267C24.72 23.8267 25.44 23.6933 26.0133 23.44L33.8267 19.96C35.8 19.08 36.0933 17.88 36.0933 17.24C36.0933 16.6 35.8133 15.4 33.8267 14.52Z" fill="white"/>
<path d="M24 30.72C23.4933 30.72 22.9867 30.6133 22.52 30.4133L13.5333 26.4133C12.16 25.8 11.0933 24.16 11.0933 22.6533C11.0933 22.1067 11.5333 21.6667 12.08 21.6667C12.6267 21.6667 13.0667 22.1067 13.0667 22.6533C13.0667 23.3733 13.6667 24.3067 14.3333 24.6L23.32 28.6C23.7467 28.7867 24.24 28.7867 24.6667 28.6L33.6533 24.6C34.32 24.3067 34.92 23.3867 34.92 22.6533C34.92 22.1067 35.36 21.6667 35.9067 21.6667C36.4533 21.6667 36.8933 22.1067 36.8933 22.6533C36.8933 24.1467 35.8267 25.8 34.4533 26.4133L25.4667 30.4133C25.0133 30.6133 24.5067 30.72 24 30.72Z" fill="white"/>
<path d="M24 37.3333C23.4933 37.3333 22.9867 37.2267 22.52 37.0267L13.5333 33.0267C12.0533 32.3733 11.0933 30.8933 11.0933 29.2667C11.0933 28.72 11.5333 28.28 12.08 28.28C12.6267 28.28 13.0667 28.72 13.0667 29.2667C13.0667 30.1067 13.56 30.8667 14.3333 31.2133L23.32 35.2133C23.7467 35.4 24.24 35.4 24.6667 35.2133L33.6533 31.2133C34.4133 30.88 34.92 30.1067 34.92 29.2667C34.92 28.72 35.36 28.28 35.9067 28.28C36.4533 28.28 36.8933 28.72 36.8933 29.2667C36.8933 30.8933 35.9333 32.36 34.4533 33.0267L25.4667 37.0267C25.0133 37.2267 24.5067 37.3333 24 37.3333Z" fill="white"/>
</svg>
