<svg width="26" height="26" viewBox="0 0 26 26" fill="none" xmlns="http://www.w3.org/2000/svg">
<path d="M13.2131 0.5C6.32563 0.5 0.713135 6.1125 0.713135 13C0.713135 19.8875 6.32563 25.5 13.2131 25.5C20.1006 25.5 25.7131 19.8875 25.7131 13C25.7131 6.1125 20.1006 0.5 13.2131 0.5ZM18.2131 13.9375L14.1506 13.9375L14.1506 18C14.1506 18.5125 13.7256 18.9375 13.2131 18.9375C12.7006 18.9375 12.2756 18.5125 12.2756 18L12.2756 13.9375H8.21313C7.70063 13.9375 7.27563 13.5125 7.27563 13C7.27563 12.4875 7.70063 12.0625 8.21313 12.0625H12.2756V8C12.2756 7.4875 12.7006 7.0625 13.2131 7.0625C13.7256 7.0625 14.1506 7.4875 14.1506 8V12.0625L18.2131 12.0625C18.7256 12.0625 19.1506 12.4875 19.1506 13C19.1506 13.5125 18.7256 13.9375 18.2131 13.9375Z" fill="#D7531B"/>
</svg>
