<svg width="67" height="64" viewBox="0 0 67 64" fill="none" xmlns="http://www.w3.org/2000/svg">
<rect width="67" height="64" rx="32" fill="#D7531B" fill-opacity="0.1"/>
<path d="M40.4666 23.0799L32.9333 19.0265C32.1333 18.5999 31.1866 18.5999 30.3866 19.0265L22.8666 23.0799C22.3199 23.3865 21.9733 23.9732 21.9733 24.6132C21.9733 25.2665 22.3066 25.8532 22.8666 26.1465L30.3999 30.1999C30.7999 30.4132 31.2399 30.5199 31.6666 30.5199C32.0933 30.5199 32.5466 30.4132 32.9333 30.1999L40.4666 26.1465C41.0133 25.8532 41.3599 25.2665 41.3599 24.6132C41.3599 23.9732 41.0133 23.3865 40.4666 23.0799Z" fill="#D7531B"/>
<path d="M29.16 31.6135L22.16 28.1201C21.6133 27.8401 21 27.8801 20.48 28.1868C19.9733 28.5068 19.6666 29.0535 19.6666 29.6535V36.2668C19.6666 37.4135 20.3066 38.4401 21.3333 38.9601L28.3333 42.4535C28.5733 42.5735 28.84 42.6401 29.1066 42.6401C29.4133 42.6401 29.7333 42.5468 30.0133 42.3868C30.52 42.0668 30.8266 41.5201 30.8266 40.9201V34.3068C30.8133 33.1601 30.1733 32.1335 29.16 31.6135Z" fill="#D7531B"/>
<path d="M43.6667 29.6535V32.9335C43.0267 32.7468 42.3467 32.6668 41.6667 32.6668C39.8534 32.6668 38.08 33.2935 36.68 34.4135C34.76 35.9201 33.6667 38.2001 33.6667 40.6668C33.6667 41.3201 33.7467 41.9735 33.92 42.6001C33.72 42.5735 33.52 42.4935 33.3334 42.3735C32.8267 42.0668 32.52 41.5201 32.52 40.9201V34.3068C32.52 33.1601 33.16 32.1335 34.1734 31.6135L41.1734 28.1201C41.72 27.8401 42.3334 27.8801 42.8534 28.1868C43.36 28.5068 43.6667 29.0535 43.6667 29.6535Z" fill="#D7531B"/>
<path d="M46.3333 36.9332C46.3333 36.9198 46.32 36.9065 46.3066 36.8932C46.2533 36.8132 46.1866 36.7332 46.12 36.6665C46.1066 36.6532 46.0933 36.6265 46.08 36.6132C45 35.4132 43.4133 34.6665 41.6666 34.6665C39.9866 34.6665 38.4533 35.3598 37.36 36.4798C36.3066 37.5598 35.6666 39.0398 35.6666 40.6665C35.6666 41.7865 35.9866 42.8532 36.5333 43.7598C36.8266 44.2532 37.2 44.7065 37.6266 45.0798C37.6533 45.0932 37.6666 45.1065 37.68 45.1198C37.7466 45.1865 37.8133 45.2398 37.8933 45.3065C37.8933 45.3065 37.8933 45.3065 37.9066 45.3065C37.92 45.3198 37.9333 45.3332 37.9466 45.3332C38.9466 46.1732 40.24 46.6665 41.6666 46.6665C43.8533 46.6665 45.76 45.4932 46.8 43.7598C47.1066 43.2398 47.3466 42.6665 47.4933 42.0665C47.6133 41.6132 47.6666 41.1465 47.6666 40.6665C47.6666 39.2532 47.1733 37.9465 46.3333 36.9332ZM43.9066 41.6398H42.6666V42.9332C42.6666 43.4798 42.2133 43.9332 41.6666 43.9332C41.12 43.9332 40.6666 43.4798 40.6666 42.9332V41.6398H39.4266C38.88 41.6398 38.4266 41.1865 38.4266 40.6398C38.4266 40.0932 38.88 39.6398 39.4266 39.6398H40.6666V38.4532C40.6666 37.9065 41.12 37.4532 41.6666 37.4532C42.2133 37.4532 42.6666 37.9065 42.6666 38.4532V39.6398H43.9066C44.4533 39.6398 44.9066 40.0932 44.9066 40.6398C44.9066 41.1865 44.4666 41.6398 43.9066 41.6398Z" fill="#D7531B"/>
</svg>
