<svg width="67" height="64" viewBox="0 0 67 64" fill="none" xmlns="http://www.w3.org/2000/svg">
<rect width="67" height="64" rx="32" fill="#D7531B" fill-opacity="0.1"/>
<path d="M42.8266 22.5202L35.0133 19.0402C33.8666 18.5335 32.1333 18.5335 30.9866 19.0402L23.1733 22.5202C21.1999 23.4002 20.9066 24.6002 20.9066 25.2402C20.9066 25.8802 21.1999 27.0802 23.1733 27.9602L30.9866 31.4402C31.5599 31.6935 32.2799 31.8268 32.9999 31.8268C33.7199 31.8268 34.4399 31.6935 35.0133 31.4402L42.8266 27.9602C44.7999 27.0802 45.0933 25.8802 45.0933 25.2402C45.0933 24.6002 44.8133 23.4002 42.8266 22.5202Z" fill="#D7531B"/>
<path d="M33.0001 38.7198C32.4934 38.7198 31.9867 38.6132 31.5201 38.4132L22.5334 34.4132C21.1601 33.7998 20.0934 32.1598 20.0934 30.6532C20.0934 30.1065 20.5334 29.6665 21.0801 29.6665C21.6267 29.6665 22.0667 30.1065 22.0667 30.6532C22.0667 31.3732 22.6667 32.3065 23.3334 32.5998L32.3201 36.5998C32.7467 36.7865 33.2401 36.7865 33.6667 36.5998L42.6534 32.5998C43.3201 32.3065 43.9201 31.3865 43.9201 30.6532C43.9201 30.1065 44.3601 29.6665 44.9067 29.6665C45.4534 29.6665 45.8934 30.1065 45.8934 30.6532C45.8934 32.1465 44.8267 33.7998 43.4534 34.4132L34.4667 38.4132C34.0134 38.6132 33.5067 38.7198 33.0001 38.7198Z" fill="#D7531B"/>
<path d="M33.0001 45.3331C32.4934 45.3331 31.9867 45.2265 31.5201 45.0265L22.5334 41.0265C21.0534 40.3731 20.0934 38.8931 20.0934 37.2665C20.0934 36.7198 20.5334 36.2798 21.0801 36.2798C21.6267 36.2798 22.0667 36.7198 22.0667 37.2665C22.0667 38.1065 22.5601 38.8665 23.3334 39.2131L32.3201 43.2131C32.7467 43.3998 33.2401 43.3998 33.6667 43.2131L42.6534 39.2131C43.4134 38.8798 43.9201 38.1065 43.9201 37.2665C43.9201 36.7198 44.3601 36.2798 44.9067 36.2798C45.4534 36.2798 45.8934 36.7198 45.8934 37.2665C45.8934 38.8931 44.9334 40.3598 43.4534 41.0265L34.4667 45.0265C34.0134 45.2265 33.5067 45.3331 33.0001 45.3331Z" fill="#D7531B"/>
</svg>
