<svg width="67" height="64" viewBox="0 0 67 64" fill="none" xmlns="http://www.w3.org/2000/svg">
<rect width="67" height="64" rx="32" fill="#D7531B" fill-opacity="0.1"/>
<path d="M33.0001 18.6665C25.6534 18.6665 19.6667 24.6532 19.6667 31.9998C19.6667 39.3465 25.6534 45.3332 33.0001 45.3332C40.3467 45.3332 46.3334 39.3465 46.3334 31.9998C46.3334 24.6532 40.3467 18.6665 33.0001 18.6665ZM39.3734 28.9332L31.8134 36.4932C31.6267 36.6798 31.3734 36.7865 31.1067 36.7865C30.8401 36.7865 30.5867 36.6798 30.4001 36.4932L26.6267 32.7198C26.2401 32.3332 26.2401 31.6932 26.6267 31.3065C27.0134 30.9198 27.6534 30.9198 28.0401 31.3065L31.1067 34.3732L37.9601 27.5198C38.3467 27.1332 38.9867 27.1332 39.3734 27.5198C39.7601 27.9065 39.7601 28.5332 39.3734 28.9332Z" fill="#D7531B"/>
</svg>
