<svg width="42" height="43" viewBox="0 0 42 43" fill="none" xmlns="http://www.w3.org/2000/svg">
<path d="M15 15C19.4612 10.5388 21 0 21 0C21 0 22.5388 10.5388 27 15C31.4612 19.4612 42 21 42 21C42 21 31.4612 22.5388 27 27C22.5388 31.4612 21 42 21 42C21 42 19.4612 31.4612 15 27C10.5388 22.5388 0 21 0 21C0 21 10.5388 19.4612 15 15Z" fill="#D7531B"/>
<path d="M35 34C33.5129 32.5129 33 29 33 29C33 29 32.4871 32.5129 31 34C29.5129 35.4871 26 36 26 36C26 36 29.5129 36.5129 31 38C32.4871 39.4871 33 43 33 43C33 43 33.5129 39.4871 35 38C36.4871 36.5129 40 36 40 36C40 36 36.4871 35.4871 35 34Z" fill="#404040"/>
</svg>
