<svg width="72" height="75" viewBox="0 0 72 75" fill="none" xmlns="http://www.w3.org/2000/svg">
<path d="M25.7143 25.7143C33.3621 18.0665 36 0 36 0C36 0 38.6379 18.0665 46.2857 25.7143C53.9335 33.3621 72 36 72 36C72 36 53.9335 38.6379 46.2857 46.2857C38.6379 53.9335 36 72 36 72C36 72 33.3621 53.9335 25.7143 46.2857C18.0665 38.6379 0 36 0 36C0 36 18.0665 33.3621 25.7143 25.7143Z" fill="#D7531B"/>
<path d="M59.4286 59.5714C56.8793 57.0222 56 51 56 51C56 51 55.1207 57.0222 52.5714 59.5714C50.0222 62.1207 44 63 44 63C44 63 50.0222 63.8793 52.5714 66.4286C55.1207 68.9778 56 75 56 75C56 75 56.8793 68.9778 59.4286 66.4286C61.9778 63.8793 68 63 68 63C68 63 61.9778 62.1207 59.4286 59.5714Z" fill="#404040"/>
</svg>
