
<svg width="12" height="12" viewBox="0 0 12 12" fill="none" xmlns="http://www.w3.org/2000/svg">
<path d="M7.71429 4.28571C6.43965 3.01108 6 0 6 0C6 0 5.56035 3.01108 4.28571 4.28571C3.01108 5.56035 0 6 0 6C0 6 3.01108 6.43965 4.28571 7.71429C5.56035 8.98892 6 12 6 12C6 12 6.43965 8.98892 7.71429 7.71429C8.98892 6.43965 12 6 12 6C12 6 8.98892 5.56035 7.71429 4.28571Z" fill="#727272"/>

<svg width="16" height="16" viewBox="0 0 16 16" fill="none" xmlns="http://www.w3.org/2000/svg">
<path d="M8.00065 1.33325L10.0607 5.50659L14.6673 5.99992L11.334 9.33325L12.1207 13.9999L8.00065 11.8466L3.88065 13.9999L4.66732 9.33325L1.33398 5.99992L5.94065 5.50659L8.00065 1.33325Z" fill="#D7531B"/>

</svg>
