<svg width="46" height="47" viewBox="0 0 46 47" fill="none" xmlns="http://www.w3.org/2000/svg">
<path d="M29.5714 16.4286C24.6853 11.5425 23 0 23 0C23 0 21.3147 11.5425 16.4286 16.4286C11.5425 21.3147 0 23 0 23C0 23 11.5425 24.6853 16.4286 29.5714C21.3147 34.4575 23 46 23 46C23 46 24.6853 34.4575 29.5714 29.5714C34.4575 24.6853 46 23 46 23C46 23 34.4575 21.3147 29.5714 16.4286Z" fill="#D7531B"/>
<path d="M8.35714 37.3571C9.95043 35.7639 10.5 32 10.5 32C10.5 32 11.0496 35.7639 12.6429 37.3571C14.2361 38.9504 18 39.5 18 39.5C18 39.5 14.2361 40.0496 12.6429 41.6429C11.0496 43.2361 10.5 47 10.5 47C10.5 47 9.95043 43.2361 8.35714 41.6429C6.76385 40.0496 3 39.5 3 39.5C3 39.5 6.76385 38.9504 8.35714 37.3571Z" fill="#404040"/>
</svg>
